<svg width="100%" height="100%" viewBox="0 0 16 16" version="1.1" xmlns="http://www.w3.org/2000/svg" xmlns:xlink="http://www.w3.org/1999/xlink" xml:space="preserve" xmlns:serif="http://www.serif.com/" style="fill:currentColor;">
    <g>
        <path d="M1,9.295L1,3.5C1,3.226 1.226,3 1.5,3L7.691,3C7.88,3 8.053,3.107 8.138,3.276L9,5L14.5,5C14.774,5 15,5.226 15,5.5L15,12.5C15,12.774 14.774,13 14.5,13L4.768,13L5.768,12L14,12L14,6L8.382,6L7.382,4L2,4L2,8.295L1,9.295Z"/>
        <g transform="matrix(1,0,0,1,-8.53702,4.58287)">
            <path d="M13.853,4.853L10.05,8.657L9.343,7.95L13.147,4.146L11.427,2.427C11.38,2.38 11.354,2.316 11.354,2.25C11.354,2.113 11.467,2 11.604,2L15.75,2C15.887,2 16,2.113 16,2.25L16,6.396C16,6.533 15.887,6.646 15.75,6.646C15.684,6.646 15.62,6.62 15.573,6.573L13.853,4.853Z"/>
        </g>
    </g>
</svg>
