<svg width="64" height="64" viewBox="0 0 64 64" fill="none" xmlns="http://www.w3.org/2000/svg">
<g clip-path="url(#clip0_597_44)">
<path fill-rule="evenodd" clip-rule="evenodd" d="M0 0H64V64H0V0Z" fill="#004E7E"/>
<path d="M34.8329 27.881C35.7529 27.2441 36.3899 26.1117 36.3899 24.8377C36.3899 20.0251 29.454 19.9543 29.3125 24.6962C31.5773 24.6962 33.6297 25.9701 34.8329 27.881Z" fill="white"/>
<path d="M35.1155 34.6758C34.0539 36.8698 31.8599 38.4268 29.3828 38.4268C29.8075 40.0546 31.2937 41.1162 32.78 41.1162C36.1063 41.187 37.5926 36.9406 35.1155 34.6758Z" fill="white"/>
<path d="M19.1953 32.2685C19.1953 34.9579 21.814 36.6565 24.0079 35.7365C22.5217 33.684 22.3094 30.9238 23.371 28.659C21.0354 28.2344 19.1953 30.0745 19.1953 32.2685Z" fill="white"/>
<path d="M42.1248 26.7485C39.9308 26.7485 38.0199 28.3763 37.5953 30.5703H34.3396C33.7027 27.1731 30.3055 25.333 27.2622 26.6777L24.6436 23.4221C25.5637 22.5021 26.1299 21.2281 26.1299 19.8126C26.2006 17.194 24.1482 15 21.6003 15C19.0524 15 17 17.194 17 19.8126C17 23.0682 20.0433 25.4038 23.0158 24.413L25.7052 27.7393C23.3697 30.1457 23.7235 34.1798 26.413 36.0199L24.5728 39.4878C24.1482 39.3463 23.6528 39.2755 23.2281 39.2755C20.6803 39.2755 18.6278 41.3987 18.6278 44.0881C18.6278 46.7776 20.6803 48.9008 23.2281 48.9008C25.776 48.9008 27.8284 46.7776 27.8284 44.0881C27.8284 42.6019 27.1915 41.328 26.2006 40.4079L28.1115 36.8692L27.6161 36.7276C30.6594 37.7892 33.8442 35.8076 34.3396 32.552L37.5953 32.6227C38.0199 34.8167 39.86 36.4445 42.1248 36.4445C44.6727 36.4445 46.7251 34.3213 46.7251 31.6319C46.7251 28.8717 44.6727 26.7485 42.1248 26.7485Z" fill="white"/>
</g>
<defs>
<clipPath id="clip0_597_44">
<rect width="64" height="64" fill="white"/>
</clipPath>
</defs>
</svg>
