<svg width="64" height="64" viewBox="0 0 64 64" fill="none" xmlns="http://www.w3.org/2000/svg">
<g clip-path="url(#clip0_597_101)">
<path fill-rule="evenodd" clip-rule="evenodd" d="M0 0H64V64H0V0Z" fill="#004E7E"/>
<path d="M44.2624 30.1921L44.8644 30.8668C45.3158 31.3915 46.1435 31.3915 46.595 30.9418C47.1217 30.492 47.1217 29.6674 46.6703 29.2176L43.1337 25.2445C42.6822 24.7198 41.8545 24.7198 41.4031 25.1696C40.8763 25.6194 40.8763 26.444 41.3278 26.8937L41.9298 27.5684L39.8981 29.3675C38.9952 28.393 38.017 27.5684 36.8883 26.8937C33.427 24.8697 35.0072 20.9716 34.631 17.1485H35.8349C36.2864 17.1485 36.6626 16.9985 36.9636 16.6987C37.2646 16.3988 37.415 16.024 37.415 15.5742C37.415 14.6747 36.7378 14 35.8349 14H25.15C24.6985 14 24.3223 14.1499 24.0213 14.4498C23.7203 14.7496 23.5698 15.1245 23.5698 15.5742C23.5698 16.4738 24.2471 17.1485 25.15 17.1485H26.3539C25.9777 20.9716 27.5579 24.7948 24.0213 26.8937C20.4095 29.0677 17.9264 33.1157 18.0017 37.6885C18.0769 44.2103 23.3441 49.6827 29.8905 49.9825C37.0388 50.3573 42.9832 44.6601 42.9832 37.6135C42.9832 35.7394 42.607 34.0153 41.8545 32.441V32.516L44.2624 30.1921ZM20.7858 35.1397C21.3877 32.591 23.0431 30.3421 25.3005 28.9927C30.342 25.9942 28.3856 20.3719 28.837 17.1485H32.1478C32.5241 20.147 30.6429 25.9942 35.6091 28.9927C37.9418 30.417 39.5972 32.591 40.1991 35.1397C32.1478 33.7904 24.3975 44.2853 20.7858 35.1397Z" fill="white"/>
</g>
<defs>
<clipPath id="clip0_597_101">
<rect width="64" height="64" fill="white"/>
</clipPath>
</defs>
</svg>
