<svg width="64" height="64" viewBox="0 0 64 64" fill="none" xmlns="http://www.w3.org/2000/svg">
<path fill-rule="evenodd" clip-rule="evenodd" d="M0 0H64V64H0V0Z" fill="#004E7E"/>
<path d="M20.3125 21.5167V42.4833C20.3125 43.1208 20.8792 43.6875 21.5167 43.6875H42.4833C43.1208 43.6875 43.6875 43.1208 43.6875 42.4833V21.5167C43.6875 20.8792 43.1208 20.3125 42.4833 20.3125H21.5167C20.8792 20.3125 20.3125 20.8792 20.3125 21.5167ZM38.0917 38.0917H29.6625C29.6625 38.0208 29.6625 38.0208 29.6625 37.95V34.125H33.0625C33.4875 34.125 33.7708 33.8417 33.7708 33.4167V30.725H38.0917V38.0917ZM38.0917 29.3083H33.0625C32.6375 29.3083 32.3542 29.5917 32.3542 30.0167V32.7083H28.9542C28.5292 32.7083 28.2458 32.9917 28.2458 33.4167V37.95C28.2458 38.0208 28.2458 38.0208 28.2458 38.0917H25.8375V29.8042H29.5208C29.9458 29.8042 30.2292 29.5208 30.2292 29.0958V25.9083H38.0917V29.3083ZM28.8125 25.9083V28.3875H25.8375V25.9083H28.8125Z" fill="white"/>
<path d="M41.5625 15H39.4375V18.8958H41.5625V15Z" fill="white"/>
<path d="M33.0625 15H30.9375V18.8958H33.0625V15Z" fill="white"/>
<path d="M24.5625 15H22.4375V18.8958H24.5625V15Z" fill="white"/>
<path d="M41.5625 45.1035H39.4375V48.9993H41.5625V45.1035Z" fill="white"/>
<path d="M33.0625 45.1035H30.9375V48.9993H33.0625V45.1035Z" fill="white"/>
<path d="M24.5625 45.1035H22.4375V48.9993H24.5625V45.1035Z" fill="white"/>
<path d="M49.0013 39.4375H45.1055V41.5625H49.0013V39.4375Z" fill="white"/>
<path d="M49.0013 30.9375H45.1055V33.0625H49.0013V30.9375Z" fill="white"/>
<path d="M49.0013 22.4375H45.1055V24.5625H49.0013V22.4375Z" fill="white"/>
<path d="M18.8958 39.4375H15V41.5625H18.8958V39.4375Z" fill="white"/>
<path d="M18.8958 30.9375H15V33.0625H18.8958V30.9375Z" fill="white"/>
<path d="M18.8958 22.4375H15V24.5625H18.8958V22.4375Z" fill="white"/>
</svg>
