<svg width="64" height="64" viewBox="0 0 64 64" fill="none" xmlns="http://www.w3.org/2000/svg">
<g clip-path="url(#clip0_597_71)">
<path fill-rule="evenodd" clip-rule="evenodd" d="M0 0H64V64H0V0Z" fill="#004E7E"/>
<path d="M22.005 47.6771C22.005 48.4059 22.661 48.9889 23.4627 48.9889C24.2643 48.9889 24.9932 48.4059 24.9932 47.75C25.066 42.3568 27.7626 37.2551 32.6456 33.2467C37.5286 37.2551 40.2252 42.3568 40.2981 47.75C40.2981 48.4788 40.954 48.9889 41.8286 48.9889C42.6303 48.9889 43.2862 48.4059 43.2862 47.6771C43.2862 41.628 40.2252 35.9433 34.8321 31.4975C40.2252 27.0518 43.2133 21.3671 43.2862 15.318C43.2862 14.5892 42.6303 14.0062 41.8286 14.0062C41.0269 14.0062 40.371 14.5892 40.2981 15.2451C40.2252 20.6383 37.5286 25.74 32.6456 29.7484C27.7626 25.74 25.066 20.6383 24.9932 15.2451C24.9932 14.5163 24.2643 13.9333 23.4627 14.0062C22.661 14.0062 21.9322 14.5892 22.005 15.318C22.005 21.3671 25.066 27.0518 30.4592 31.4975C25.066 35.9433 22.005 41.628 22.005 47.6771Z" fill="white"/>
<path d="M34.1022 39.077C34.6852 39.077 35.1954 38.6398 35.1954 37.9838C35.1954 37.3279 34.6852 36.8906 34.1022 36.8906H31.187C30.6039 36.8906 30.0938 37.3279 30.0938 37.9838C30.0938 38.6398 30.6039 39.077 31.187 39.077H34.1022Z" fill="white"/>
<path d="M28.6367 42.1381C28.6367 42.7212 29.1469 43.2313 29.7299 43.2313H35.5604C36.1434 43.2313 36.6536 42.7941 36.6536 42.1381C36.6536 41.4822 36.1434 41.0449 35.5604 41.0449H29.7299C29.1469 41.1178 28.6367 41.5551 28.6367 42.1381Z" fill="white"/>
<path d="M26.8164 46.3641C26.8164 46.9471 27.3266 47.4573 27.9096 47.4573H37.3841C37.9672 47.4573 38.4773 47.02 38.4773 46.3641C38.4773 45.7082 37.9672 45.3438 37.3841 45.3438H27.9096C27.3266 45.3438 26.8164 45.781 26.8164 46.3641Z" fill="white"/>
<path d="M31.187 23.4805C30.6039 23.4805 30.0938 23.9178 30.0938 24.5737C30.0938 25.1567 30.6039 25.6669 31.187 25.6669H34.1022C34.6852 25.6669 35.1954 25.2296 35.1954 24.5737C35.1954 23.9906 34.6852 23.4805 34.1022 23.4805H31.187Z" fill="white"/>
<path d="M36.6536 20.4916C36.6536 19.9086 36.1434 19.3984 35.5604 19.3984H29.7299C29.1469 19.3984 28.6367 19.8357 28.6367 20.4916C28.6367 21.1476 29.1469 21.5849 29.7299 21.5849H35.5604C36.1434 21.512 36.6536 21.0747 36.6536 20.4916Z" fill="white"/>
<path d="M27.9096 17.2841H37.3841C37.9672 17.2841 38.4773 16.8468 38.4773 16.1909C38.4773 15.5349 37.9672 15.0977 37.3841 15.0977H27.9096C27.3266 15.0977 26.8164 15.5349 26.8164 16.1909C26.8164 16.8468 27.3266 17.2841 27.9096 17.2841Z" fill="white"/>
</g>
<defs>
<clipPath id="clip0_597_71">
<rect width="64" height="64" fill="white"/>
</clipPath>
</defs>
</svg>
