<svg width="64" height="64" viewBox="0 0 64 64" fill="none" xmlns="http://www.w3.org/2000/svg">
<g clip-path="url(#clip0_597_51)">
<path fill-rule="evenodd" clip-rule="evenodd" d="M0 0H64V64H0V0Z" fill="#004E7E"/>
<path d="M18.1741 47.5129H46.5647C47.3479 47.5129 48.0005 46.8516 48.0005 46.0579L47.9353 26.3495C47.9353 25.5558 47.2826 24.9606 46.4994 25.0929C45.912 25.2252 45.4552 25.7542 45.4552 26.4156V30.1192H42.2571V19.6697H42.1919C42.9751 19.6697 43.6277 19.0084 43.6277 18.2148C43.6277 17.4211 42.9751 16.7598 42.1919 16.7598H34.2947C33.5115 16.7598 32.8589 17.4211 32.8589 18.2148C32.8589 19.0084 33.5115 19.6697 34.2947 19.6697H34.2295V30.1192H29.7914V19.6697H29.7261C30.5093 19.6697 31.162 19.0084 31.162 18.2148C31.162 17.4211 30.5093 16.7598 29.7261 16.7598H21.7637C20.9805 16.7598 20.3279 17.4211 20.3279 18.2148C20.3279 19.0084 20.9805 19.6697 21.7637 19.6697H21.6985V30.1192H19.2184V26.3495C19.2184 25.5558 18.5657 24.9606 17.7825 25.0929C17.1951 25.2252 16.7383 25.7542 16.7383 26.4156V46.0579C16.7383 46.8516 17.3909 47.5129 18.1741 47.5129ZM35.7306 19.6697H40.8866V28.5319H35.7306V19.6697ZM23.1343 19.6697H28.2903V28.5319H23.1343V19.6697ZM19.2184 32.8308H21.6985V38.32C21.6985 40.5687 23.5259 42.4205 25.7449 42.4205C27.964 42.4205 29.7914 40.5687 29.7914 38.32V32.8308H34.2947V38.32C34.2947 40.5687 36.1222 42.4205 38.3412 42.4205C40.5602 42.4205 42.3877 40.5687 42.3877 38.32V32.8308H45.5857V45.0659H19.2184V32.8308Z" fill="white"/>
</g>
<defs>
<clipPath id="clip0_597_51">
<rect width="64" height="64" fill="white"/>
</clipPath>
</defs>
</svg>
