<svg xmlns="http://www.w3.org/2000/svg" fill="none" width="64" height="64" viewBox="0 0 528 528"><path fill="#004E7E" d="M0 0h528v528H0z"/><path fill="#fff" d="M200.6 235.6h-47.2a5.2 5.2 0 0 0-5.2 5.3V288c0 3 2.3 5.3 5.2 5.3h47.2c3 0 5.3-2.4 5.3-5.3V241c0-3-2.4-5.3-5.3-5.3ZM229.2 256.3h93.9a5.2 5.2 0 1 0 0-10.5h-93.9a5.2 5.2 0 1 0 0 10.5ZM229.2 283.2h146.4a5.2 5.2 0 1 0 0-10.5H229.2a5.2 5.2 0 1 0 0 10.5ZM200.6 154h-47.2a5.2 5.2 0 0 0-5.2 5.2v47.3c0 2.9 2.3 5.2 5.2 5.2h47.2c3 0 5.3-2.3 5.3-5.2v-47.3c0-2.9-2.4-5.2-5.3-5.2ZM229.2 174.7h93.9a5.2 5.2 0 1 0 0-10.5h-93.9a5.2 5.2 0 1 0 0 10.5ZM229.2 201.5h146.4a5.2 5.2 0 1 0 0-10.5H229.2a5.2 5.2 0 1 0 0 10.5ZM200.6 317.3h-47.2a5.2 5.2 0 0 0-5.2 5.2v47.3c0 2.8 2.3 5.2 5.2 5.2h47.2c3 0 5.3-2.4 5.3-5.2v-47.3c0-2.9-2.4-5.2-5.3-5.2ZM229.2 338h93.9a5.2 5.2 0 1 0 0-10.5h-93.9a5.2 5.2 0 1 0 0 10.5ZM229.2 364.8h146.4a5.2 5.2 0 1 0 0-10.5H229.2a5.2 5.2 0 1 0 0 10.5Z"/></svg>
