<svg width="200" height="200" viewBox="0 0 528 528" fill="none" xmlns="http://www.w3.org/2000/svg">
<rect width="528" height="528" fill="#E8B510"/>
<path d="M174.063 223.619H107.17C103.065 223.619 99.7374 226.946 99.7374 231.052V297.944C99.7374 302.049 103.065 305.377 107.17 305.377H174.063C178.168 305.377 181.496 302.049 181.496 297.944V231.052C181.496 226.946 178.168 223.619 174.063 223.619Z" fill="white"/>
<path d="M214.533 252.936H347.499C349.47 252.936 351.361 252.153 352.755 250.759C354.149 249.365 354.932 247.475 354.932 245.503C354.932 243.532 354.149 241.641 352.755 240.247C351.361 238.853 349.47 238.07 347.499 238.07H214.533C212.561 238.07 210.671 238.853 209.277 240.247C207.883 241.641 207.1 243.532 207.1 245.503C207.1 247.475 207.883 249.365 209.277 250.759C210.671 252.153 212.561 252.936 214.533 252.936Z" fill="white"/>
<path d="M214.533 290.926H421.828C423.799 290.926 425.69 290.143 427.084 288.749C428.478 287.355 429.261 285.465 429.261 283.493C429.261 281.522 428.478 279.632 427.084 278.238C425.69 276.844 423.799 276.061 421.828 276.061H214.533C212.561 276.061 210.671 276.844 209.277 278.238C207.883 279.632 207.1 281.522 207.1 283.493C207.1 285.465 207.883 287.355 209.277 288.749C210.671 290.143 212.561 290.926 214.533 290.926Z" fill="white"/>
<path d="M174.063 107.996H107.17C103.065 107.996 99.7374 111.324 99.7374 115.429V182.322C99.7374 186.427 103.065 189.755 107.17 189.755H174.063C178.168 189.755 181.496 186.427 181.496 182.322V115.429C181.496 111.324 178.168 107.996 174.063 107.996Z" fill="white"/>
<path d="M214.533 137.313H347.499C349.47 137.313 351.361 136.53 352.755 135.136C354.149 133.742 354.932 131.851 354.932 129.88C354.932 127.909 354.149 126.018 352.755 124.624C351.361 123.23 349.47 122.447 347.499 122.447H214.533C212.561 122.447 210.671 123.23 209.277 124.624C207.883 126.018 207.1 127.909 207.1 129.88C207.1 131.851 207.883 133.742 209.277 135.136C210.671 136.53 212.561 137.313 214.533 137.313Z" fill="white"/>
<path d="M214.533 175.303H421.828C423.799 175.303 425.69 174.52 427.084 173.126C428.478 171.732 429.261 169.842 429.261 167.87C429.261 165.899 428.478 164.008 427.084 162.615C425.69 161.221 423.799 160.438 421.828 160.438H214.533C212.561 160.438 210.671 161.221 209.277 162.615C207.883 164.008 207.1 165.899 207.1 167.87C207.1 169.842 207.883 171.732 209.277 173.126C210.671 174.52 212.561 175.303 214.533 175.303Z" fill="white"/>
<path d="M174.063 339.242H107.17C103.065 339.242 99.7374 342.57 99.7374 346.675V413.567C99.7374 417.672 103.065 421 107.17 421H174.063C178.168 421 181.496 417.672 181.496 413.567V346.675C181.496 342.57 178.168 339.242 174.063 339.242Z" fill="white"/>
<path d="M214.533 368.559H347.499C349.47 368.559 351.361 367.776 352.755 366.382C354.149 364.988 354.932 363.097 354.932 361.126C354.932 359.154 354.149 357.264 352.755 355.87C351.361 354.476 349.47 353.693 347.499 353.693H214.533C212.561 353.693 210.671 354.476 209.277 355.87C207.883 357.264 207.1 359.154 207.1 361.126C207.1 363.097 207.883 364.988 209.277 366.382C210.671 367.776 212.561 368.559 214.533 368.559Z" fill="white"/>
<path d="M214.533 406.549H421.828C423.799 406.549 425.69 405.766 427.084 404.372C428.478 402.978 429.261 401.087 429.261 399.116C429.261 397.145 428.478 395.254 427.084 393.86C425.69 392.466 423.799 391.683 421.828 391.683H214.533C212.561 391.683 210.671 392.466 209.277 393.86C207.883 395.254 207.1 397.145 207.1 399.116C207.1 401.087 207.883 402.978 209.277 404.372C210.671 405.766 212.561 406.549 214.533 406.549Z" fill="white"/>
</svg>
