<svg width="64" height="64" viewBox="0 0 64 64" fill="none" xmlns="http://www.w3.org/2000/svg">
    <path d="M30.7119 31.5748C31.4455 30.5986 31.8395 29.4214 31.8369 28.2135V22.8482C31.8364 22.5473 31.7747 22.2494 31.6554 21.9717C31.5361 21.6939 31.3614 21.4417 31.1415 21.2294C30.9215 21.0172 30.6606 20.8491 30.3736 20.7347C30.0865 20.6204 29.7791 20.562 29.4688 20.563V18.2741H36.5503V20.563C36.24 20.562 35.9325 20.6204 35.6455 20.7347C35.3585 20.8491 35.0975 21.0172 34.8776 21.2294C34.6576 21.4417 34.483 21.6939 34.3637 21.9717C34.2443 22.2494 34.1827 22.5473 34.1822 22.8482V28.2135C34.1802 29.4242 34.5815 30.6031 35.3262 31.5748L40.7794 38.8371H25.2206L30.7119 31.5748ZM42.9378 43.8253C42.9378 43.6291 43.0182 43.441 43.1612 43.3023C43.3042 43.1637 43.4982 43.0857 43.7005 43.0857C43.9028 43.0857 44.0968 43.1637 44.2398 43.3023C44.3828 43.441 44.4632 43.6291 44.4632 43.8253C44.4629 44.2056 44.3848 44.5822 44.2336 44.9331C44.0825 45.2841 43.8611 45.6026 43.5823 45.8701C43.3029 46.1412 42.9712 46.3561 42.6061 46.5027C42.2409 46.6493 41.8496 46.7246 41.4544 46.7243H40.6803C40.478 46.7243 40.284 46.6464 40.141 46.5077C39.9979 46.369 39.9176 46.1809 39.9176 45.9847C39.9176 45.7886 39.9979 45.6005 40.141 45.4618C40.284 45.3231 40.478 45.2452 40.6803 45.2452H41.4658C41.854 45.2471 42.2271 45.0995 42.5031 44.8348C42.7794 44.5669 42.9357 44.2042 42.9378 43.8253ZM38.5562 45.2452C38.7585 45.2452 38.9524 45.3231 39.0955 45.4618C39.2385 45.6005 39.3189 45.7886 39.3189 45.9847C39.3189 46.1809 39.2385 46.369 39.0955 46.5077C38.9524 46.6464 38.7585 46.7243 38.5562 46.7243H31.1962C30.994 46.7243 30.8 46.6464 30.6569 46.5077C30.5139 46.369 30.4336 46.1809 30.4336 45.9847C30.4336 45.7886 30.5139 45.6005 30.6569 45.4618C30.8 45.3231 30.994 45.2452 31.1962 45.2452H38.5562ZM45.325 41.0002L37.2253 30.2362C36.7813 29.6502 36.5445 28.9407 36.5503 28.2135V22.8482C37.1747 22.8472 37.7731 22.606 38.2143 22.1775C38.6554 21.7491 38.9032 21.1684 38.9032 20.563V18.2741C38.9012 17.6703 38.6524 17.0919 38.2114 16.6656C37.7703 16.2394 37.173 16 36.5503 16H29.4497C28.827 16 28.2297 16.2394 27.7886 16.6656C27.3476 17.0919 27.0988 17.6703 27.0968 18.2741V20.563C27.0968 21.1684 27.3446 21.7491 27.7857 22.1775C28.2269 22.606 28.8253 22.8472 29.4497 22.8482V28.2135C29.4555 28.9407 29.2187 29.6502 28.7747 30.2362L20.675 41.0002C20.236 41.5845 19.9996 42.2889 20 43.0118V44.5648C20.001 45.4756 20.3746 46.3488 21.0387 46.9928C21.7029 47.6368 22.6034 47.999 23.5427 48H42.4573C43.3966 47.999 44.2971 47.6368 44.9613 46.9928C45.6254 46.3488 45.999 45.4756 46 44.5648V43.0118C46.0004 42.2889 45.764 41.5845 45.325 41.0002Z" fill="currentColor"/>
</svg>
